<!-- Light Bulb by Eliricon from the Noun Project -->
<svg xmlns:dc="http://purl.org/dc/elements/1.1/" xmlns:cc="http://creativecommons.org/ns#" xmlns:rdf="http://www.w3.org/1999/02/22-rdf-syntax-ns#" xmlns:svg="http://www.w3.org/2000/svg" xmlns="http://www.w3.org/2000/svg" xmlns:sodipodi="http://sodipodi.sourceforge.net/DTD/sodipodi-0.dtd" xmlns:inkscape="http://www.inkscape.org/namespaces/inkscape" viewBox="0 0 100 125" version="1.1" x="0px" y="0px"><g transform="translate(0,-952.36216)"><path style="color:#000000;font-style:normal;font-variant:normal;font-weight:normal;font-stretch:normal;font-size:medium;line-height:normal;font-family:sans-serif;text-indent:0;text-align:start;text-decoration:none;text-decoration-line:none;text-decoration-style:solid;text-decoration-color:#000000;letter-spacing:normal;word-spacing:normal;text-transform:none;direction:ltr;block-progression:tb;writing-mode:lr-tb;baseline-shift:baseline;text-anchor:start;white-space:normal;clip-rule:nonzero;display:inline;overflow:visible;visibility:visible;opacity:1;isolation:auto;mix-blend-mode:normal;color-interpolation:sRGB;color-interpolation-filters:linearRGB;solid-color:#000000;solid-opacity:1;fill:#000000;fill-opacity:1;fill-rule:evenodd;stroke:none;stroke-width:2.5;stroke-linecap:butt;stroke-linejoin:round;stroke-miterlimit:4;stroke-dasharray:none;stroke-dashoffset:0;stroke-opacity:1;color-rendering:auto;image-rendering:auto;shape-rendering:auto;text-rendering:auto;enable-background:accumulate" d="M 18.871094 23.521484 A 1.250125 1.250125 0 0 0 17.621094 24.771484 L 17.621094 27.798828 A 1.250125 1.250125 0 0 0 18.871094 29.048828 L 19.910156 29.048828 C 20.551376 39.707048 25.957194 48.972719 33.871094 54.369141 L 36.246094 72.039062 A 1.250125 1.250125 0 0 0 37.484375 73.123047 L 44.798828 73.123047 L 44.798828 86.220703 A 0.750075 0.750075 0 1 0 46.298828 86.220703 L 46.298828 73.123047 L 53.701172 73.123047 L 53.701172 86.220703 A 0.750075 0.750075 0 1 0 55.201172 86.220703 L 55.201172 73.123047 L 62.515625 73.123047 A 1.250125 1.250125 0 0 0 63.753906 72.037109 L 66.117188 54.236328 C 73.922044 48.820908 79.239158 39.617523 79.875 29.048828 L 80.902344 29.048828 A 1.250125 1.250125 0 0 0 82.152344 27.798828 L 82.152344 24.771484 A 1.250125 1.250125 0 0 0 80.902344 23.521484 L 18.871094 23.521484 z M 20.121094 26.021484 L 79.652344 26.021484 L 79.652344 26.548828 L 78.767578 26.548828 A 1.250125 1.250125 0 0 0 77.517578 27.769531 C 77.182875 41.34684 68.550455 52.535116 57.003906 55.857422 C 54.680504 56.455516 52.294554 56.771005 49.890625 56.777344 C 47.464381 56.768493 45.057927 56.447238 42.714844 55.835938 C 31.202004 52.489061 22.601603 41.319504 22.267578 27.769531 A 1.250125 1.250125 0 0 0 21.017578 26.548828 L 20.121094 26.548828 L 20.121094 26.021484 z M 63.341797 56.146484 L 61.419922 70.623047 L 38.578125 70.623047 L 36.642578 56.230469 C 37.896666 56.81619 39.181562 57.312859 40.486328 57.736328 C 43.441319 58.786993 46.597924 59.365459 49.884766 59.369141 A 1.250125 1.250125 0 0 0 49.888672 59.369141 C 53.091659 59.366936 56.170505 58.816998 59.060547 57.818359 C 60.516723 57.359006 61.948075 56.807514 63.341797 56.146484 z " transform="translate(0,952.36216)"/></g></svg>